<svg xmlns="http://www.w3.org/2000/svg" width="100%" height="100%" xmlns:xlink="http://www.w3.org/1999/xlink" viewBox="-1 -1 26 26">

    <g>
        <title>background</title>
        <rect fill="#3f51b5" id="canvas_background" height="26" width="26" y="-1" x="-1" />
    </g>
    <g>
        <title>Layer 1</title>
        <rect height="24" width="24" y="0" x="0" id="svgEditorBackground" style="fill: none;" />
        <path id="svg_1" fill="white" d="M17.65,6.35c-1.4499999999999993,-1.4500000000000002,-3.4399999999999995,-2.35,-5.65,-2.35c-4.42,0,-7.99,3.5800000000000005,-7.99,8s3.5700000000000003,8,7.99,8c3.7300000000000004,0,6.839999999999998,-2.5500000000000007,7.729999999999999,-6l-2.0799999999999983,0c-0.8200000000000003,2.3299999999999983,-3.039999999999999,4,-5.65,4c-3.3100000000000005,0,-6,-2.6900000000000013,-6,-6s2.6899999999999995,-6,6,-6c1.6600000000000001,0,3.1400000000000006,0.6900000000000004,4.220000000000001,1.7800000000000002l-3.2200000000000006,3.2199999999999998l7.000000000000002,0l0,-7l-2.3500000000000014,2.3499999999999996Z"
        />
        <path id="svg_2" fill="none" d="m0,0l24,0l0,24l-24,0l0,-24z" />
    </g>
</svg>