<svg width="23.999999999999996" height="23.999999999999996" xmlns="http://www.w3.org/2000/svg">

 <g>
  <title>background</title>
  <rect fill="#3f51b5" id="canvas_background" height="26" width="26" y="-1" x="-1"/>
 </g>
 <g>
  <title>Layer 1</title>
  <rect fill=" none" height="24" width="24" y="0" x="0" id="svgEditorBackground"/>
  <path id="svg_1" fill=" rgb(254, 64, 128)" d="m17.65,6.35c-1.45,-1.45 -3.44,-2.35 -5.65,-2.35c-4.42,0 -7.99,3.58 -7.99,8s3.57,8 7.99,8c3.73,0 6.84,-2.55 7.73,-6l-2.08,0c-0.82,2.33 -3.04,4 -5.65,4c-3.31,0 -6,-2.69 -6,-6s2.69,-6 6,-6c1.66,0 3.14,0.69 4.22,1.78l-3.22,3.22l7,0l0,-7l-2.35,2.35z"/>
  <path id="svg_2" fill="none" d="m0,0l24,0l0,24l-24,0l0,-24z"/>
 </g>
</svg>